<svg id="Layer_1" data-name="Layer 1" xmlns="http://www.w3.org/2000/svg" viewBox="0 0 260 65"><defs><style>.cls-1{fill:#fff}.cls-2{fill:#11458d}.cls-3{fill:#009fe3}.cls-4{fill:#e30613}.cls-5{clip-path:url(#clip-path)}.cls-6{clip-path:url(#clip-path-2)}.cls-7{clip-path:url(#clip-path-3)}.cls-8{clip-path:url(#clip-path-4)}.cls-9{fill:#55514f}.cls-10{fill:#e97800}</style><clipPath id="clip-path"><path class="cls-1" d="M162.71 30.42H162c-4.26 0-8.45.08-12.54.25a5.44 5.44 0 0 0-5.47 5.4q-.27 3.56-.25 7.09c0 2.37.07 4.73.25 7.1a5.44 5.44 0 0 0 5.47 5.4q6.45.27 13.21.25t13.21-.25a5.44 5.44 0 0 0 5.46-5.4c.18-2.37.26-4.73.26-7.1s-.08-4.72-.26-7.09a5.44 5.44 0 0 0-5.46-5.4q-6.15-.26-12.55-.25h-.66"/></clipPath><clipPath id="clip-path-2"><path class="cls-1" d="M155.61 10.5l-1.6 6.69h-.17l-1.67-6.69h-2.61l3.08 10.11v6.64h2.59V20.3l3.01-9.8h-2.63z"/></clipPath><clipPath id="clip-path-3"><path class="cls-1" d="M160.73 25.14a1.17 1.17 0 0 1-.25-.79v-6.73a.83.83 0 0 1 .27-.65.92.92 0 0 1 .68-.25 1 1 0 0 1 .73.25.81.81 0 0 1 .29.65v6.73a1.05 1.05 0 0 1-.28.78 1 1 0 0 1-.74.29.92.92 0 0 1-.7-.28m-1.68-9.71a3 3 0 0 0-.93 2.28v6.41a3.43 3.43 0 0 0 .91 2.51 3.19 3.19 0 0 0 2.41.93 3.32 3.32 0 0 0 2.46-.9 3.42 3.42 0 0 0 .89-2.49v-6.38a3.07 3.07 0 0 0-.91-2.31 3.2 3.2 0 0 0-2.34-.9 3.53 3.53 0 0 0-2.49.85"/></clipPath><clipPath id="clip-path-4"><path class="cls-1" d="M171 14.89v9.38a3.13 3.13 0 0 1-.71.66 1.19 1.19 0 0 1-.64.26.54.54 0 0 1-.47-.19 1.06 1.06 0 0 1-.14-.64v-9.47h-2.3v10.33a2.79 2.79 0 0 0 .4 1.65 1.39 1.39 0 0 0 1.2.55 2.73 2.73 0 0 0 1.34-.39 5 5 0 0 0 1.32-1.15v1.37h2.29V14.89z"/></clipPath></defs><title>social-media</title><path class="cls-1" d="M0 0h65v65H0zm65 0h65v65H65zm65 0h65v65h-65zm65 0h65v65h-65z"/><path class="cls-2" d="M62.5 32.5a30 30 0 1 0-30 30 30 30 0 0 0 30-30z"/><path id="Facebook" class="cls-1" d="M27.45 21.55v5.25H23.6v6.42h3.85v17.62h7.9V33.22h5.3s.5-3.08.74-6.44h-6v-4.39a1.86 1.86 0 0 1 1.71-1.54h4.3v-6.69h-5.85c-8.3 0-8.1 6.43-8.1 7.39z"/><path class="cls-3" d="M127.5 32.5a30 30 0 1 0-30 30 30 30 0 0 0 30-30z"/><path class="cls-1" d="M117.17 21.27a15.8 15.8 0 0 1-4.55 1.24 8 8 0 0 0 3.48-4.38 16 16 0 0 1-5 1.93 7.92 7.92 0 0 0-13.7 5.41 7.73 7.73 0 0 0 .21 1.81A22.44 22.44 0 0 1 81.26 19a7.94 7.94 0 0 0 2.45 10.58 8.05 8.05 0 0 1-3.59-1v.09a7.93 7.93 0 0 0 6.35 7.77 7.91 7.91 0 0 1-2.08.28 8.1 8.1 0 0 1-1.49-.14 7.91 7.91 0 0 0 7.39 5.49 15.84 15.84 0 0 1-9.83 3.39 14.76 14.76 0 0 1-1.89-.11 22.41 22.41 0 0 0 12.14 3.56c14.56 0 22.53-12.06 22.53-22.53v-1a16.21 16.21 0 0 0 3.93-4.11z"/><path class="cls-4" d="M192.5 32.5a30 30 0 1 0-30 30 30 30 0 0 0 30-30z"/><path class="cls-1" d="M162.71 30.42H162c-4.26 0-8.45.08-12.54.25a5.44 5.44 0 0 0-5.47 5.4q-.27 3.56-.25 7.09c0 2.37.07 4.73.25 7.1a5.44 5.44 0 0 0 5.47 5.4q6.45.27 13.21.25t13.21-.25a5.44 5.44 0 0 0 5.46-5.4c.18-2.37.26-4.73.26-7.1s-.08-4.72-.26-7.09a5.44 5.44 0 0 0-5.46-5.4q-6.15-.26-12.55-.25h-.66"/><g class="cls-5"><path class="cls-1" d="M143.77 30.42h37.87v25.5h-37.87z"/></g><path class="cls-1" d="M155.61 10.5l-1.6 6.69h-.17l-1.67-6.69h-2.61l3.08 10.11v6.64h2.59V20.3l3.01-9.8h-2.63z"/><g class="cls-6"><path class="cls-1" d="M149.56 10.5h8.68v16.75h-8.68z"/></g><path class="cls-1" d="M160.73 25.14a1.17 1.17 0 0 1-.25-.79v-6.73a.83.83 0 0 1 .27-.65.92.92 0 0 1 .68-.25 1 1 0 0 1 .73.25.81.81 0 0 1 .29.65v6.73a1.05 1.05 0 0 1-.28.78 1 1 0 0 1-.74.29.92.92 0 0 1-.7-.28m-1.68-9.71a3 3 0 0 0-.93 2.28v6.41a3.43 3.43 0 0 0 .91 2.51 3.19 3.19 0 0 0 2.41.93 3.32 3.32 0 0 0 2.46-.9 3.42 3.42 0 0 0 .89-2.49v-6.38a3.07 3.07 0 0 0-.91-2.31 3.2 3.2 0 0 0-2.34-.9 3.53 3.53 0 0 0-2.49.85"/><g class="cls-7"><path class="cls-1" d="M158.12 14.58h6.67v12.98h-6.67z"/></g><path class="cls-1" d="M171 14.89v9.38a3.13 3.13 0 0 1-.71.66 1.19 1.19 0 0 1-.64.26.54.54 0 0 1-.47-.19 1.06 1.06 0 0 1-.14-.64v-9.47h-2.3v10.33a2.79 2.79 0 0 0 .4 1.65 1.39 1.39 0 0 0 1.2.55 2.73 2.73 0 0 0 1.34-.39 5 5 0 0 0 1.32-1.15v1.37h2.29V14.89z"/><g class="cls-8"><path class="cls-1" d="M166.74 14.89h6.55v12.53h-6.55z"/></g><path class="cls-9" d="M154.65 34.55h-7.94V37h2.68v14.3H152V37h2.68zm4.23 13.77a3.43 3.43 0 0 1-.71.67 1.31 1.31 0 0 1-.64.26.55.55 0 0 1-.47-.2 1.06 1.06 0 0 1-.14-.64v-9.47h-2.3v10.33a2.8 2.8 0 0 0 .4 1.66 1.41 1.41 0 0 0 1.2.55 2.75 2.75 0 0 0 1.34-.4 5.08 5.08 0 0 0 1.32-1.15v1.37h2.29V38.94h-2.29zm8.9-9.53a2.2 2.2 0 0 0-1.06.29 3.53 3.53 0 0 0-1 .86v-5.39h-2.32V51.3h2.32v-.95a3.1 3.1 0 0 0 1 .83 2.66 2.66 0 0 0 1.21.28 1.87 1.87 0 0 0 1.56-.7 3.26 3.26 0 0 0 .54-2v-6.88a3.9 3.9 0 0 0-.58-2.3 1.92 1.92 0 0 0-1.66-.79m-.13 9.61a1.35 1.35 0 0 1-.2.85.71.71 0 0 1-.62.26 1.2 1.2 0 0 1-.55-.13 1.85 1.85 0 0 1-.54-.43v-7.7a1.6 1.6 0 0 1 .47-.38 1.07 1.07 0 0 1 .49-.12.84.84 0 0 1 .7.32 1.54 1.54 0 0 1 .25 1zm10.86-3v-3.13a3.85 3.85 0 0 0-.85-2.7 3.07 3.07 0 0 0-2.42-.94 3.36 3.36 0 0 0-2.52 1 3.64 3.64 0 0 0-1 2.63v5.54a4.08 4.08 0 0 0 .89 2.8 3 3 0 0 0 2.42 1 3.28 3.28 0 0 0 2.58-1 4.13 4.13 0 0 0 .87-2.86v-.93h-2.37v.86a2.82 2.82 0 0 1-.22 1.41.94.94 0 0 1-.81.32.83.83 0 0 1-.77-.38 2.83 2.83 0 0 1-.23-1.35v-2.26zm-4.4-3.17a1.94 1.94 0 0 1 .24-1.11.91.91 0 0 1 .79-.34.88.88 0 0 1 .76.34 1.94 1.94 0 0 1 .24 1.11v1.25h-2z"/><path class="cls-10" d="M257.5 32.5a30 30 0 1 0-30 30 30 30 0 0 0 30-30z"/><path class="cls-1" d="M241.51 23.58V18.3h-2.25v5.28h-5.27v2.22h5.27v5.32h2.25V25.8h5.28v-2.22h-5.28zM232 39a7.47 7.47 0 0 0-1.14-1.26c-.43-.4-.88-.79-1.33-1.19L228 35.37c-.22-.2-.46-.43-.71-.7a1.54 1.54 0 0 1-.38-1.12 1.76 1.76 0 0 1 .38-1.18 11.28 11.28 0 0 1 .8-.89c.45-.34.88-.7 1.31-1.08a8.54 8.54 0 0 0 1.14-1.26 6.24 6.24 0 0 0 .8-1.59 6.76 6.76 0 0 0 .29-2.07 6.27 6.27 0 0 0-.33-2.11 8 8 0 0 0-.81-1.63 7 7 0 0 0-1-1.18 10.34 10.34 0 0 0-.88-.78h2.61L234 18.3h-8.7a18.21 18.21 0 0 0-3.73.42 9 9 0 0 0-3.82 1.9 7.85 7.85 0 0 0-2 2.68 7.2 7.2 0 0 0-.67 3 6.66 6.66 0 0 0 .46 2.42 6.43 6.43 0 0 0 1.35 2.13 6.6 6.6 0 0 0 2.2 1.5 7.42 7.42 0 0 0 3 .57h.68l.67-.06c-.11.25-.21.5-.29.73a2.66 2.66 0 0 0-.13.91 3.05 3.05 0 0 0 .4 1.63 13.74 13.74 0 0 0 .87 1.24c-.48 0-1 .07-1.69.13a18.66 18.66 0 0 0-2.07.29 18.42 18.42 0 0 0-2.21.57 9.68 9.68 0 0 0-2.09 1 6 6 0 0 0-3.25 5.15 4.87 4.87 0 0 0 .55 2.26 5.58 5.58 0 0 0 1.68 1.92A9.21 9.21 0 0 0 218 50a14 14 0 0 0 4 .5 15.25 15.25 0 0 0 4.79-.69 11.2 11.2 0 0 0 3.48-1.82 7.71 7.71 0 0 0 2.11-2.56 6.42 6.42 0 0 0 .72-2.91 5.83 5.83 0 0 0-.3-1.95A5.89 5.89 0 0 0 232 39zm-8-7.28a3.72 3.72 0 0 1-2.35-.78A6.66 6.66 0 0 1 220 29a9.08 9.08 0 0 1-1-2.46 10.21 10.21 0 0 1-.32-2.37 7.59 7.59 0 0 1 .19-1.65A3.75 3.75 0 0 1 221 20a3.82 3.82 0 0 1 1.64-.38 3.6 3.6 0 0 1 2.3.78 6.7 6.7 0 0 1 1.67 2 9.84 9.84 0 0 1 1 2.54 10.23 10.23 0 0 1 .34 2.5 8.37 8.37 0 0 1-.17 1.48 3.07 3.07 0 0 1-.88 1.61 4.2 4.2 0 0 1-1.29.85 3.88 3.88 0 0 1-1.61.34zm4.66 15.67a7.18 7.18 0 0 1-4.62 1.29 9.22 9.22 0 0 1-5.43-1.43 4.41 4.41 0 0 1-2-3.72 3.72 3.72 0 0 1 .44-1.89 4.88 4.88 0 0 1 1-1.27 4.73 4.73 0 0 1 1.2-.78c.41-.18.73-.32 1-.4.45-.14.91-.26 1.39-.36a12.42 12.42 0 0 1 1.35-.21l1.1-.09h1.12a2.69 2.69 0 0 1 .44.05c.79.56 1.48 1.06 2.07 1.51a9.38 9.38 0 0 1 1.43 1.31 4.86 4.86 0 0 1 .83 1.29 3.75 3.75 0 0 1 .27 1.45 4 4 0 0 1-1.56 3.25z"/></svg>