<svg xmlns="http://www.w3.org/2000/svg" width="115" height="113" viewBox="0 0 115 113"><defs><style>.cls-1{fill:#fff;fill-rule:evenodd}</style></defs><path id="Searchicon" class="cls-1" d="M967.108 1771a8.182 8.182 0 0 1-5.768-2.33l-24.949-24.51c-.1-.1-.2-.2-.293-.3l-2.553-2.78-3.364 1.75a46.623 46.623 0 0 1-21.4 5.2 45.9 45.9 0 0 1-32.4-13.19 44.505 44.505 0 0 1 0-63.66 46.414 46.414 0 0 1 64.8 0 44.454 44.454 0 0 1 8.129 52.86l-1.779 3.31 2.826 2.5c.1.09.206.19.306.29l24.949 24.51a7.92 7.92 0 0 1 0 11.33l-2.738 2.69a8.181 8.181 0 0 1-5.766 2.33zm-58.327-98.12a30.753 30.753 0 0 0-21.686 8.83 29.788 29.788 0 0 0 0 42.61 31.047 31.047 0 0 0 43.374 0 29.788 29.788 0 0 0 0-42.61 30.758 30.758 0 0 0-21.688-8.83z" transform="translate(-863 -1658)"/></svg>