<svg id="Layer_1" data-name="Layer 1" xmlns="http://www.w3.org/2000/svg" xmlns:xlink="http://www.w3.org/1999/xlink" viewBox="0 0 260 65"><defs><style>.cls-1{fill:#fff;}.cls-2{fill:#11458d;}.cls-3{fill:#009fe3;}.cls-4{fill:#e30613;}.cls-5{clip-path:url(#clip-path);}.cls-6{clip-path:url(#clip-path-2);}.cls-7{clip-path:url(#clip-path-3);}.cls-8{clip-path:url(#clip-path-4);}.cls-9{fill:#55514f;}.cls-10{fill:#e97800;}</style><clipPath id="clip-path"><path class="cls-1" d="M162.71,30.42H162c-4.26,0-8.45.08-12.54.25a5.44,5.44,0,0,0-5.47,5.4q-.27,3.56-.25,7.09c0,2.37.07,4.73.25,7.1a5.44,5.44,0,0,0,5.47,5.4q6.45.27,13.21.25t13.21-.25a5.44,5.44,0,0,0,5.46-5.4c.18-2.37.26-4.73.26-7.1s-.08-4.72-.26-7.09a5.44,5.44,0,0,0-5.46-5.4q-6.15-.26-12.55-.25h-.66"/></clipPath><clipPath id="clip-path-2"><polygon class="cls-1" points="155.61 10.5 154.01 17.19 153.84 17.19 152.17 10.5 149.56 10.5 152.64 20.61 152.64 27.25 155.23 27.25 155.23 20.3 158.24 10.5 155.61 10.5"/></clipPath><clipPath id="clip-path-3"><path class="cls-1" d="M160.73,25.14a1.17,1.17,0,0,1-.25-.79V17.62a.83.83,0,0,1,.27-.65.92.92,0,0,1,.68-.25,1,1,0,0,1,.73.25.81.81,0,0,1,.29.65v6.73a1.05,1.05,0,0,1-.28.78,1,1,0,0,1-.74.29.92.92,0,0,1-.7-.28m-1.68-9.71a3,3,0,0,0-.93,2.28v6.41a3.43,3.43,0,0,0,.91,2.51,3.19,3.19,0,0,0,2.41.93,3.32,3.32,0,0,0,2.46-.9,3.42,3.42,0,0,0,.89-2.49V17.79a3.07,3.07,0,0,0-.91-2.31,3.2,3.2,0,0,0-2.34-.9,3.53,3.53,0,0,0-2.49.85"/></clipPath><clipPath id="clip-path-4"><path class="cls-1" d="M171,14.89v9.38a3.13,3.13,0,0,1-.71.66,1.19,1.19,0,0,1-.64.26.54.54,0,0,1-.47-.19,1.06,1.06,0,0,1-.14-.64V14.89h-2.3V25.22a2.79,2.79,0,0,0,.4,1.65,1.39,1.39,0,0,0,1.2.55,2.73,2.73,0,0,0,1.34-.39A5,5,0,0,0,171,25.88v1.37h2.29V14.89Z"/></clipPath></defs><title>social-media</title><rect class="cls-1" width="65" height="65"/><rect class="cls-1" x="65" width="65" height="65"/><rect class="cls-1" x="130" width="65" height="65"/><rect class="cls-1" x="195" width="65" height="65"/><path class="cls-2" d="M62.5,32.5a30,30,0,1,0-30,30A30,30,0,0,0,62.5,32.5Z"/><path id="Facebook" class="cls-1" d="M27.45,21.55V26.8H23.6v6.42h3.85V50.84h7.9V33.22h5.3s.5-3.08.74-6.44h-6V22.39a1.86,1.86,0,0,1,1.71-1.54H41.4V14.16H35.55C27.25,14.16,27.45,20.59,27.45,21.55Z"/><path class="cls-3" d="M127.5,32.5a30,30,0,1,0-30,30A30,30,0,0,0,127.5,32.5Z"/><path class="cls-1" d="M117.17,21.27a15.8,15.8,0,0,1-4.55,1.24,8,8,0,0,0,3.48-4.38,16,16,0,0,1-5,1.93,7.92,7.92,0,0,0-13.7,5.41,7.73,7.73,0,0,0,.21,1.81A22.44,22.44,0,0,1,81.26,19a7.94,7.94,0,0,0,2.45,10.58,8.05,8.05,0,0,1-3.59-1v.09a7.93,7.93,0,0,0,6.35,7.77,7.91,7.91,0,0,1-2.08.28,8.1,8.1,0,0,1-1.49-.14,7.91,7.91,0,0,0,7.39,5.49,15.84,15.84,0,0,1-9.83,3.39,14.76,14.76,0,0,1-1.89-.11,22.41,22.41,0,0,0,12.14,3.56c14.56,0,22.53-12.06,22.53-22.53,0-.34,0-.68,0-1A16.21,16.21,0,0,0,117.17,21.27Z"/><path class="cls-4" d="M192.5,32.5a30,30,0,1,0-30,30A30,30,0,0,0,192.5,32.5Z"/><path class="cls-1" d="M162.71,30.42H162c-4.26,0-8.45.08-12.54.25a5.44,5.44,0,0,0-5.47,5.4q-.27,3.56-.25,7.09c0,2.37.07,4.73.25,7.1a5.44,5.44,0,0,0,5.47,5.4q6.45.27,13.21.25t13.21-.25a5.44,5.44,0,0,0,5.46-5.4c.18-2.37.26-4.73.26-7.1s-.08-4.72-.26-7.09a5.44,5.44,0,0,0-5.46-5.4q-6.15-.26-12.55-.25h-.66"/><g class="cls-5"><rect class="cls-1" x="143.77" y="30.42" width="37.87" height="25.5"/></g><polygon class="cls-1" points="155.61 10.5 154.01 17.19 153.84 17.19 152.17 10.5 149.56 10.5 152.64 20.61 152.64 27.25 155.23 27.25 155.23 20.3 158.24 10.5 155.61 10.5"/><g class="cls-6"><rect class="cls-1" x="149.56" y="10.5" width="8.68" height="16.75"/></g><path class="cls-1" d="M160.73,25.14a1.17,1.17,0,0,1-.25-.79V17.62a.83.83,0,0,1,.27-.65.92.92,0,0,1,.68-.25,1,1,0,0,1,.73.25.81.81,0,0,1,.29.65v6.73a1.05,1.05,0,0,1-.28.78,1,1,0,0,1-.74.29.92.92,0,0,1-.7-.28m-1.68-9.71a3,3,0,0,0-.93,2.28v6.41a3.43,3.43,0,0,0,.91,2.51,3.19,3.19,0,0,0,2.41.93,3.32,3.32,0,0,0,2.46-.9,3.42,3.42,0,0,0,.89-2.49V17.79a3.07,3.07,0,0,0-.91-2.31,3.2,3.2,0,0,0-2.34-.9,3.53,3.53,0,0,0-2.49.85"/><g class="cls-7"><rect class="cls-1" x="158.12" y="14.58" width="6.67" height="12.98"/></g><path class="cls-1" d="M171,14.89v9.38a3.13,3.13,0,0,1-.71.66,1.19,1.19,0,0,1-.64.26.54.54,0,0,1-.47-.19,1.06,1.06,0,0,1-.14-.64V14.89h-2.3V25.22a2.79,2.79,0,0,0,.4,1.65,1.39,1.39,0,0,0,1.2.55,2.73,2.73,0,0,0,1.34-.39A5,5,0,0,0,171,25.88v1.37h2.29V14.89Z"/><g class="cls-8"><rect class="cls-1" x="166.74" y="14.89" width="6.55" height="12.53"/></g><path class="cls-9" d="M154.65,34.55h-7.94V37h2.68V51.3H152V37h2.68Zm4.23,13.77a3.43,3.43,0,0,1-.71.67,1.31,1.31,0,0,1-.64.26.55.55,0,0,1-.47-.2,1.06,1.06,0,0,1-.14-.64V38.94h-2.3V49.27a2.8,2.8,0,0,0,.4,1.66,1.41,1.41,0,0,0,1.2.55,2.75,2.75,0,0,0,1.34-.4,5.08,5.08,0,0,0,1.32-1.15V51.3h2.29V38.94h-2.29Zm8.9-9.53a2.2,2.2,0,0,0-1.06.29,3.53,3.53,0,0,0-1,.86V34.55h-2.32V51.3h2.32v-.95a3.1,3.1,0,0,0,1,.83,2.66,2.66,0,0,0,1.21.28,1.87,1.87,0,0,0,1.56-.7,3.26,3.26,0,0,0,.54-2V41.88a3.9,3.9,0,0,0-.58-2.3,1.92,1.92,0,0,0-1.66-.79m-.13,9.61a1.35,1.35,0,0,1-.2.85.71.71,0,0,1-.62.26,1.2,1.2,0,0,1-.55-.13,1.85,1.85,0,0,1-.54-.43v-7.7a1.6,1.6,0,0,1,.47-.38,1.07,1.07,0,0,1,.49-.12.84.84,0,0,1,.7.32,1.54,1.54,0,0,1,.25,1Zm10.86-3V42.27a3.85,3.85,0,0,0-.85-2.7,3.07,3.07,0,0,0-2.42-.94,3.36,3.36,0,0,0-2.52,1,3.64,3.64,0,0,0-1,2.63v5.54a4.08,4.08,0,0,0,.89,2.8,3,3,0,0,0,2.42,1,3.28,3.28,0,0,0,2.58-1,4.13,4.13,0,0,0,.87-2.86v-.93h-2.37v.86a2.82,2.82,0,0,1-.22,1.41.94.94,0,0,1-.81.32.83.83,0,0,1-.77-.38,2.83,2.83,0,0,1-.23-1.35V45.41Zm-4.4-3.17a1.94,1.94,0,0,1,.24-1.11.91.91,0,0,1,.79-.34.88.88,0,0,1,.76.34,1.94,1.94,0,0,1,.24,1.11v1.25h-2Z"/><path class="cls-10" d="M257.5,32.5a30,30,0,1,0-30,30A30,30,0,0,0,257.5,32.5Z"/><polygon class="cls-1" points="241.51 23.58 241.51 18.3 239.26 18.3 239.26 23.58 233.99 23.58 233.99 25.8 239.26 25.8 239.26 31.12 241.51 31.12 241.51 25.8 246.79 25.8 246.79 23.58 241.51 23.58"/><path class="cls-1" d="M232,39a7.47,7.47,0,0,0-1.14-1.26c-.43-.4-.88-.79-1.33-1.19L228,35.37c-.22-.2-.46-.43-.71-.7a1.54,1.54,0,0,1-.38-1.12,1.76,1.76,0,0,1,.38-1.18,11.28,11.28,0,0,1,.8-.89c.45-.34.88-.7,1.31-1.08a8.54,8.54,0,0,0,1.14-1.26,6.24,6.24,0,0,0,.8-1.59,6.76,6.76,0,0,0,.29-2.07,6.27,6.27,0,0,0-.33-2.11,8,8,0,0,0-.81-1.63,7,7,0,0,0-1-1.18,10.34,10.34,0,0,0-.88-.78h2.61L234,18.3h-8.7a18.21,18.21,0,0,0-3.73.42,9,9,0,0,0-3.82,1.9,7.85,7.85,0,0,0-2,2.68,7.2,7.2,0,0,0-.67,3,6.66,6.66,0,0,0,.46,2.42,6.43,6.43,0,0,0,1.35,2.13,6.6,6.6,0,0,0,2.2,1.5,7.42,7.42,0,0,0,3,.57l.68,0,.67-.06c-.11.25-.21.5-.29.73a2.66,2.66,0,0,0-.13.91,3.05,3.05,0,0,0,.4,1.63,13.74,13.74,0,0,0,.87,1.24c-.48,0-1,.07-1.69.13a18.66,18.66,0,0,0-2.07.29,18.42,18.42,0,0,0-2.21.57,9.68,9.68,0,0,0-2.09,1,6,6,0,0,0-3.25,5.15,4.87,4.87,0,0,0,.55,2.26,5.58,5.58,0,0,0,1.68,1.92A9.21,9.21,0,0,0,218,50a14,14,0,0,0,4,.5,15.25,15.25,0,0,0,4.79-.69,11.2,11.2,0,0,0,3.48-1.82,7.71,7.71,0,0,0,2.11-2.56,6.42,6.42,0,0,0,.72-2.91,5.83,5.83,0,0,0-.3-1.95A5.89,5.89,0,0,0,232,39Zm-8-7.28a3.72,3.72,0,0,1-2.35-.78A6.66,6.66,0,0,1,220,29a9.08,9.08,0,0,1-1-2.46,10.21,10.21,0,0,1-.32-2.37,7.59,7.59,0,0,1,.19-1.65A3.75,3.75,0,0,1,221,20a3.82,3.82,0,0,1,1.64-.38,3.6,3.6,0,0,1,2.3.78,6.7,6.7,0,0,1,1.67,2,9.84,9.84,0,0,1,1,2.54,10.23,10.23,0,0,1,.34,2.5,8.37,8.37,0,0,1-.17,1.48,3.07,3.07,0,0,1-.88,1.61,4.2,4.2,0,0,1-1.29.85A3.88,3.88,0,0,1,224,31.72Zm4.66,15.67a7.18,7.18,0,0,1-4.62,1.29,9.22,9.22,0,0,1-5.43-1.43,4.41,4.41,0,0,1-2-3.72,3.72,3.72,0,0,1,.44-1.89,4.88,4.88,0,0,1,1-1.27,4.73,4.73,0,0,1,1.2-.78c.41-.18.73-.32,1-.4.45-.14.91-.26,1.39-.36a12.42,12.42,0,0,1,1.35-.21l1.1-.09.59,0h.53a2.69,2.69,0,0,1,.44.05c.79.56,1.48,1.06,2.07,1.51a9.38,9.38,0,0,1,1.43,1.31,4.86,4.86,0,0,1,.83,1.29,3.75,3.75,0,0,1,.27,1.45A4,4,0,0,1,228.69,47.39Z"/></svg>