<svg xmlns="http://www.w3.org/2000/svg" width="115" height="113" viewBox="0 0 115 113">
  <metadata><?xpacket begin="﻿" id="W5M0MpCehiHzreSzNTczkc9d"?>
<x:xmpmeta xmlns:x="adobe:ns:meta/" x:xmptk="Adobe XMP Core 5.6-c140 79.160451, 2017/05/06-01:08:21        ">
   <rdf:RDF xmlns:rdf="http://www.w3.org/1999/02/22-rdf-syntax-ns#">
      <rdf:Description rdf:about=""/>
   </rdf:RDF>
</x:xmpmeta>
                                                                                                    
                                                                                                    
                                                                                                    
                                                                                                    
                                                                                                    
                                                                                                    
                                                                                                    
                                                                                                    
                                                                                                    
                                                                                                    
                                                                                                    
                                                                                                    
                                                                                                    
                                                                                                    
                                                                                                    
                                                                                                    
                                                                                                    
                                                                                                    
                                                                                                    
                                                                                                    
                           
<?xpacket end="w"?></metadata>
<defs>
    <style>
      .cls-1 {
        fill: #fff;
        fill-rule: evenodd;
      }
    </style>
  </defs>
  <path id="Searchicon" class="cls-1" d="M967.108,1771a8.182,8.182,0,0,1-5.768-2.33l-24.949-24.51c-0.1-.1-0.2-0.2-0.293-0.3l-2.553-2.78-3.364,1.75a46.623,46.623,0,0,1-21.4,5.2,45.9,45.9,0,0,1-32.4-13.19,44.505,44.505,0,0,1,0-63.66,46.414,46.414,0,0,1,64.8,0,44.454,44.454,0,0,1,8.129,52.86l-1.779,3.31,2.826,2.5c0.1,0.09.206,0.19,0.306,0.29l24.949,24.51a7.92,7.92,0,0,1,0,11.33l-2.738,2.69a8.181,8.181,0,0,1-5.766,2.33h0Zm-58.327-98.12a30.753,30.753,0,0,0-21.686,8.83,29.788,29.788,0,0,0,0,42.61,31.047,31.047,0,0,0,43.374,0,29.788,29.788,0,0,0,0-42.61A30.758,30.758,0,0,0,908.781,1672.88Z" transform="translate(-863 -1658)"/>
</svg>
